<?xml version="1.0" encoding="utf-8"?>
<!-- Generator: Adobe Illustrator 23.1.1, SVG Export Plug-In . SVG Version: 6.00 Build 0)  -->
<svg version="1.1" id="Layer_1" xmlns="http://www.w3.org/2000/svg" xmlns:xlink="http://www.w3.org/1999/xlink" x="0px" y="0px"
	 viewBox="0 0 27.7 27.7" style="enable-background:new 0 0 27.7 27.7;" xml:space="preserve">
<style type="text/css">
	.st0{fill:#FFFFFF;}
</style>
<title>link</title>
<g>
	<path class="st0" d="M17.4,10.3c-0.7-0.7-1.5-1.2-2.4-1.5l-2,2c1,0,2,0.4,2.7,1.1c1.5,1.5,1.5,4,0,5.6l-6.5,6.6
		c-1.6,1.5-4.1,1.4-5.6-0.3c-1.4-1.5-1.4-3.8,0-5.3l3.9-3.9c-0.2-1.1-0.2-2.3,0-3.4l-5.7,5.6c-2.5,2.5-2.5,6.5,0,9s6.5,2.5,9,0l0,0
		l6.5-6.5C19.9,16.8,19.9,12.8,17.4,10.3z"/>
	<path class="st0" d="M12.8,18.9l2-2c-1,0-2-0.4-2.7-1.2c-1.5-1.6-1.5-4,0-5.6l6.5-6.5c1.6-1.5,4.1-1.4,5.6,0.3
		c1.4,1.5,1.4,3.8,0,5.3l-4,4c0.3,1.1,0.3,2.3,0,3.4l5.7-5.7c2.5-2.5,2.5-6.5,0-9s-6.5-2.5-9,0l-6.5,6.5c-2.5,2.5-2.5,6.5,0,9
		c0,0,0,0,0,0C11,18.1,11.8,18.6,12.8,18.9z"/>
</g>
</svg>
