<?xml version="1.0" encoding="utf-8"?>
<!-- Generator: Adobe Illustrator 23.1.1, SVG Export Plug-In . SVG Version: 6.00 Build 0)  -->
<svg version="1.1" id="Layer_1" xmlns="http://www.w3.org/2000/svg" xmlns:xlink="http://www.w3.org/1999/xlink" x="0px" y="0px"
	 viewBox="0 0 30 30" style="enable-background:new 0 0 30 30;" xml:space="preserve">
<style type="text/css">
	.st0{fill:#FFFFFF;}
</style>
<title>mail</title>
<g>
	<path class="st0" d="M23,11.7l-7.3,4.4c-0.5,0.3-1.1,0.3-1.5,0L7,11.7c-0.3-0.2-0.5-0.4-0.7-0.7v8c0,0.7,0.6,1.3,1.3,1.3h0h14.8
		c0.7,0,1.3-0.6,1.3-1.3c0,0,0,0,0,0v-8C23.5,11.3,23.3,11.5,23,11.7z"/>
	<path class="st0" d="M7.5,10.8l7.3,4.4c0.1,0.1,0.3,0.1,0.5,0l7.3-4.4c0.2-0.1,0.3-0.4,0.1-0.7c-0.1-0.1-0.2-0.2-0.4-0.2H7.7
		c-0.2,0-0.4,0.1-0.4,0.3C7.2,10.5,7.3,10.7,7.5,10.8z"/>
	<path class="st0" d="M25.5,0h-21C2,0,0,2,0,4.5c0,0,0,0,0,0v21C0,28,2,30,4.5,30c0,0,0,0,0,0h21c2.5,0,4.5-2,4.5-4.5c0,0,0,0,0,0
		v-21C30,2,28,0,25.5,0C25.5,0,25.5,0,25.5,0z M24.7,19.3c0,1.3-1,2.3-2.3,2.3c0,0,0,0,0,0H7.6c-1.3,0-2.3-1-2.3-2.3l0,0v-8.6
		c0-1.3,1-2.3,2.3-2.3h14.8c1.3,0,2.3,1,2.3,2.3V19.3z"/>
</g>
</svg>
