<svg id="Layer_1" data-name="Layer 1" xmlns="http://www.w3.org/2000/svg" viewBox="0 0 30 30"><defs><style>.cls-1{fill:#7f7f7f;}.cls-2,.cls-3,.cls-5{fill:none;}.cls-2{stroke:#000;}.cls-2,.cls-3{stroke-miterlimit:10;stroke-width:0.12px;}.cls-3{stroke:#fff;}.cls-4{fill:#fff;}</style></defs><title>starcloud</title><rect class="cls-1" width="30" height="30" rx="4.78"/><path class="cls-2" d="M12.16,9.17a5.37,5.37,0,0,0-.7.33"/><path d="M15.05,17.57l-.05.06a1.14,1.14,0,0,1-.22.22.75.75,0,0,1-.35.16.56.56,0,0,1-.38-.07.53.53,0,0,1-.15-.11,1.59,1.59,0,0,1-.13-.13l.13.12c.06,0,.1.08.16.09a.48.48,0,0,0,.35,0,.73.73,0,0,0,.31-.17A1.23,1.23,0,0,0,15,17.5l.05,0Z"/><path d="M8.28,12.87a2.79,2.79,0,0,0-.61.81A9.36,9.36,0,0,1,7.07,10Z"/><path class="cls-2" d="M8.28,12.87a2.79,2.79,0,0,0-.61.81A9.36,9.36,0,0,1,7.07,10Z"/><path d="M9.46,17.11a2.19,2.19,0,0,1-.51,0,1.67,1.67,0,0,1-.48-.15A1.75,1.75,0,0,1,9,17,2.08,2.08,0,0,1,9.46,17.11Z"/><path d="M9.46,17.82A2,2,0,0,1,9,18a2.09,2.09,0,0,1-.51.08A2,2,0,0,1,9,17.9,1.81,1.81,0,0,1,9.46,17.82Z"/><path d="M9.46,18.57a1.19,1.19,0,0,1-.34.29,1.62,1.62,0,0,1-.4.18,1.34,1.34,0,0,1,.34-.29A1.62,1.62,0,0,1,9.46,18.57Z"/><path d="M11.93,15.58s-.21.79-.69.72c0,0-.49-.15-.25-1,0,0,.16-1,.72-1C11.71,14.33,12.21,14.36,11.93,15.58Z"/><path class="cls-3" d="M11.93,15.58s-.21.79-.69.72c0,0-.49-.15-.25-1,0,0,.16-1,.72-1C11.71,14.33,12.21,14.36,11.93,15.58Z"/><polyline class="cls-2" points="15.11 22.32 15.02 22.32 14.89 22.32"/><path class="cls-2" d="M18.54,9.5a5.37,5.37,0,0,0-.7-.33"/><path d="M16.23,17.7l-.13.13a.53.53,0,0,1-.15.11.56.56,0,0,1-.38.07.75.75,0,0,1-.35-.16,1.14,1.14,0,0,1-.22-.22L15,17.57l.05,0,.05,0a1.23,1.23,0,0,0,.23.28.73.73,0,0,0,.31.17.48.48,0,0,0,.35,0c.06,0,.1-.06.16-.09Z"/><path d="M22.94,10a9.46,9.46,0,0,1-.61,3.68,2.79,2.79,0,0,0-.61-.81Z"/><path class="cls-2" d="M22.94,10a9.46,9.46,0,0,1-.61,3.68,2.79,2.79,0,0,0-.61-.81Z"/><path d="M21.53,16.92a1.67,1.67,0,0,1-.48.15,2.19,2.19,0,0,1-.51,0A2.08,2.08,0,0,1,21,17,1.75,1.75,0,0,1,21.53,16.92Z"/><path d="M21.53,18.1A2.09,2.09,0,0,1,21,18a2,2,0,0,1-.48-.2,1.81,1.81,0,0,1,.51.08A2,2,0,0,1,21.53,18.1Z"/><path d="M21.28,19a1.62,1.62,0,0,1-.4-.18,1.19,1.19,0,0,1-.34-.29,1.62,1.62,0,0,1,.4.18A1.34,1.34,0,0,1,21.28,19Z"/><path d="M18.76,16.3c-.48.07-.69-.72-.69-.72-.28-1.22.22-1.25.22-1.25.56-.06.72,1,.72,1C19.25,16.15,18.76,16.3,18.76,16.3Z"/><path class="cls-3" d="M18.76,16.3c-.48.07-.69-.72-.69-.72-.28-1.22.22-1.25.22-1.25.56-.06.72,1,.72,1C19.25,16.15,18.76,16.3,18.76,16.3Z"/><path d="M15.27,16.54l-.21.1a.13.13,0,0,1-.12,0l-.21-.1a.13.13,0,0,1,.06-.24h.42A.13.13,0,0,1,15.27,16.54Z"/><path class="cls-4" d="M23.43,7.92a10.59,10.59,0,0,0-5.59,1.25h0a8.32,8.32,0,0,0-2.74-.54h-.18a8.32,8.32,0,0,0-2.74.54h0A10.59,10.59,0,0,0,6.57,7.92a9.23,9.23,0,0,0,.59,6.83c-1,2.93,0,4.64,1.31,5.85a9,9,0,0,0,4.3,1.54c1,.12,2,.16,2.25.18s1.29-.07,2.21-.18a9,9,0,0,0,4.3-1.54c1.28-1.21,2.28-2.92,1.31-5.85A9.23,9.23,0,0,0,23.43,7.92ZM7.67,13.68A9.36,9.36,0,0,1,7.07,10l1.21,2.87A2.79,2.79,0,0,0,7.67,13.68Zm1.45,5.18a1.62,1.62,0,0,1-.4.18,1.34,1.34,0,0,1,.34-.29,1.62,1.62,0,0,1,.4-.18A1.19,1.19,0,0,1,9.12,18.86ZM9,18a2.09,2.09,0,0,1-.51.08A2,2,0,0,1,9,17.9a1.81,1.81,0,0,1,.51-.08A2,2,0,0,1,9,18Zm0-.95a1.67,1.67,0,0,1-.48-.15A1.75,1.75,0,0,1,9,17a2.08,2.08,0,0,1,.48.16A2.19,2.19,0,0,1,9,17.07Zm3-1.49s-.21.79-.69.72c0,0-.49-.15-.25-1,0,0,.16-1,.72-1C11.71,14.33,12.21,14.36,11.93,15.58Zm2.86.72h.42a.13.13,0,0,1,.06.24l-.21.1a.13.13,0,0,1-.12,0l-.21-.1A.13.13,0,0,1,14.79,16.3Zm1.31,1.53a.53.53,0,0,1-.15.11.56.56,0,0,1-.38.07.75.75,0,0,1-.35-.16,1.14,1.14,0,0,1-.22-.22,1.14,1.14,0,0,1-.22.22.75.75,0,0,1-.35.16.56.56,0,0,1-.38-.07.53.53,0,0,1-.15-.11,1.59,1.59,0,0,1-.13-.13l.13.12c.06,0,.1.08.16.09a.48.48,0,0,0,.35,0,.73.73,0,0,0,.31-.17A1.23,1.23,0,0,0,15,17.5l.05,0,.05,0a1.23,1.23,0,0,0,.23.28.73.73,0,0,0,.31.17.48.48,0,0,0,.35,0c.06,0,.1-.06.16-.09l.13-.12Zm2.66-1.53c-.48.07-.69-.72-.69-.72-.28-1.22.22-1.25.22-1.25.56-.06.72,1,.72,1C19.25,16.15,18.76,16.3,18.76,16.3Zm2.12,2.56a1.19,1.19,0,0,1-.34-.29,1.62,1.62,0,0,1,.4.18,1.34,1.34,0,0,1,.34.29A1.62,1.62,0,0,1,20.88,18.86ZM21,18a2,2,0,0,1-.48-.2,1.81,1.81,0,0,1,.51.08,2,2,0,0,1,.48.2A2.09,2.09,0,0,1,21,18Zm0-.95a2.19,2.19,0,0,1-.51,0A2.08,2.08,0,0,1,21,17a1.75,1.75,0,0,1,.51,0A1.67,1.67,0,0,1,21.05,17.07Zm.67-4.2L22.94,10a9.46,9.46,0,0,1-.61,3.68A2.79,2.79,0,0,0,21.72,12.87Z"/><path class="cls-5" d="M7.07,10l1.21,2.87a2.79,2.79,0,0,0-.61.81A9.36,9.36,0,0,1,7.07,10Z"/><path class="cls-5" d="M9,17.9a1.81,1.81,0,0,1,.51-.08A2,2,0,0,1,9,18a2.09,2.09,0,0,1-.51.08A2,2,0,0,1,9,17.9Z"/><path class="cls-5" d="M9.06,18.75a1.62,1.62,0,0,1,.4-.18,1.19,1.19,0,0,1-.34.29,1.62,1.62,0,0,1-.4.18A1.34,1.34,0,0,1,9.06,18.75Z"/><path class="cls-5" d="M9,17a2.08,2.08,0,0,1,.48.16,2.19,2.19,0,0,1-.51,0,1.67,1.67,0,0,1-.48-.15A1.75,1.75,0,0,1,9,17Z"/><path class="cls-5" d="M11.93,15.58s-.21.79-.69.72c0,0-.49-.15-.25-1,0,0,.16-1,.72-1C11.71,14.33,12.21,14.36,11.93,15.58Z"/><path class="cls-5" d="M14.73,16.54a.13.13,0,0,1,.06-.24h.42a.13.13,0,0,1,.06.24l-.21.1a.13.13,0,0,1-.12,0Z"/><path class="cls-5" d="M16.1,17.82l.13-.12-.13.13a.53.53,0,0,1-.15.11.56.56,0,0,1-.38.07.75.75,0,0,1-.35-.16,1.14,1.14,0,0,1-.22-.22,1.14,1.14,0,0,1-.22.22.75.75,0,0,1-.35.16.56.56,0,0,1-.38-.07.53.53,0,0,1-.15-.11,1.59,1.59,0,0,1-.13-.13l.13.12c.06,0,.1.08.16.09a.48.48,0,0,0,.35,0,.73.73,0,0,0,.31-.17A1.23,1.23,0,0,0,15,17.5l.05,0,.05,0a1.23,1.23,0,0,0,.23.28.73.73,0,0,0,.31.17.48.48,0,0,0,.35,0C16,17.9,16,17.85,16.1,17.82Z"/><path class="cls-5" d="M19,15.31c.24.84-.25,1-.25,1-.48.07-.69-.72-.69-.72-.28-1.22.22-1.25.22-1.25C18.85,14.27,19,15.31,19,15.31Z"/><path class="cls-5" d="M20.94,18.75a1.34,1.34,0,0,1,.34.29,1.62,1.62,0,0,1-.4-.18,1.19,1.19,0,0,1-.34-.29A1.62,1.62,0,0,1,20.94,18.75Z"/><path class="cls-5" d="M21.05,17.9a2,2,0,0,1,.48.2A2.09,2.09,0,0,1,21,18a2,2,0,0,1-.48-.2A1.81,1.81,0,0,1,21.05,17.9Z"/><path class="cls-5" d="M21.53,16.92a1.67,1.67,0,0,1-.48.15,2.19,2.19,0,0,1-.51,0A2.08,2.08,0,0,1,21,17,1.75,1.75,0,0,1,21.53,16.92Z"/><path class="cls-5" d="M21.72,12.87,22.94,10a9.46,9.46,0,0,1-.61,3.68A2.79,2.79,0,0,0,21.72,12.87Z"/><path class="cls-5" d="M1.82,3V29.29H28.18V3ZM21.53,20.6a9,9,0,0,1-4.3,1.54c-.92.11-1.87.16-2.21.18s-1.29-.06-2.25-.18a9,9,0,0,1-4.3-1.54c-1.28-1.21-2.28-2.92-1.31-5.85a9.23,9.23,0,0,1-.59-6.83,10.59,10.59,0,0,1,5.59,1.25h0a8.32,8.32,0,0,1,2.74-.54h.18a8.32,8.32,0,0,1,2.74.54h0a10.59,10.59,0,0,1,5.59-1.25,9.23,9.23,0,0,1-.59,6.83C23.81,17.68,22.81,19.39,21.53,20.6Z"/></svg>